# xmcd CD database file
#
# Track frame offsets:
#	150
#	26040
#	48761
#	79565
#	97678
#	121768
#	142416
#	162673
#	180621
#	192276
#	218006
#	230949
#	261182
#	290503
#
# Disc length: 4198 seconds
#
# Revision: 1
# Processed by: cddbd v1.5.2PL0 Copyright (c) Steve Scherf et al.
# Submitted via: CDex 1.70beta2
#
DISCID=c710640e
DTITLE=Various Artist - Audiophiler Blues CD2
DYEAR=1900
DGENRE=Blues
TTITLE0=01 Blues Company - Cold Rain
TTITLE1=02 Mike Zito - Greyhound
TTITLE2=03 Savoy Brown - Voodoo Moon
TTITLE3=04 Blues Company - Red Blood
TTITLE4=05 Blues Company - Crippled Mind
TTITLE5=06 Greg Brown - Cold,Dark&Wet
TTITLE6=07 John L.Hooker - I'm in the Mood
TTITLE7=08 Ray Charles - Sorry seems to be..
TTITLE8=09 Bert Jansch - Edge of a Dream
TTITLE9=10 Tindersticks - Kathleen
TTITLE10=11 Michael J.Sheehy - St.John the Gambler
TTITLE11=12 David Munyon - on the Autobahn
TTITLE12=13 David Munyon - Rock&Roll Things
TTITLE13=14 B.B.King - The Thrill is gone
EXTD=
EXTT0=
EXTT1=
EXTT2=
EXTT3=
EXTT4=
EXTT5=
EXTT6=
EXTT7=
EXTT8=
EXTT9=
EXTT10=
EXTT11=
EXTT12=
EXTT13=
PLAYORDER=
